<?xml version="1.0" encoding="UTF-8" standalone="no"?>
<!-- Created with Inkscape (http://www.inkscape.org/) -->

<svg
   xmlns:dc="http://purl.org/dc/elements/1.1/"
   xmlns:cc="http://creativecommons.org/ns#"
   xmlns:rdf="http://www.w3.org/1999/02/22-rdf-syntax-ns#"
   xmlns:svg="http://www.w3.org/2000/svg"
   xmlns="http://www.w3.org/2000/svg"
   xmlns:sodipodi="http://sodipodi.sourceforge.net/DTD/sodipodi-0.dtd"
   xmlns:inkscape="http://www.inkscape.org/namespaces/inkscape"
   id="svg3229"
   height="24"
   width="24"
   version="1.0"
   inkscape:version="0.48.4 r9939"
   sodipodi:docname="btsync.svg">
  <defs
     id="defs8" />
  <sodipodi:namedview
     pagecolor="#ffffff"
     bordercolor="#666666"
     borderopacity="1"
     objecttolerance="10"
     gridtolerance="10"
     guidetolerance="10"
     inkscape:pageopacity="0"
     inkscape:pageshadow="2"
     inkscape:window-width="1280"
     inkscape:window-height="1000"
     id="namedview6"
     showgrid="false"
     showguides="true"
     inkscape:guide-bbox="true"
     inkscape:zoom="9.8333333"
     inkscape:cx="16.630917"
     inkscape:cy="19.023732"
     inkscape:window-x="0"
     inkscape:window-y="24"
     inkscape:window-maximized="1"
     inkscape:current-layer="svg3229">
    <sodipodi:guide
       orientation="1,0"
       position="12,17.288136"
       id="guide3765" />
    <sodipodi:guide
       orientation="0,1"
       position="5.6949153,12.20339"
       id="guide3767" />
  </sodipodi:namedview>
  <metadata
     id="metadata9">
    <rdf:RDF>
      <cc:Work
         rdf:about="">
        <dc:format>image/svg+xml</dc:format>
        <dc:type
           rdf:resource="http://purl.org/dc/dcmitype/StillImage" />
        <dc:title />
      </cc:Work>
    </rdf:RDF>
  </metadata>
  <path
     inkscape:connector-curvature="0"
     style="color:#000000;fill:#000000;fill-opacity:0.30196078;stroke:none;stroke-width:1px;marker:none;visibility:visible;display:inline;overflow:visible;enable-background:accumulate"
     d="m 12,2.6242497 c -5.6164549,0 -10.1562497,4.539795 -10.1562497,10.1562503 0,5.616455 4.5397948,10.1875 10.1562497,10.1875 5.616455,0 10.15625,-4.571045 10.15625,-10.1875 C 22.15625,7.1640447 17.616455,2.6242497 12,2.6242497 z m -0.3125,1.5 c 0.575472,-0.02015 1.16092,0.02596 1.75,0.125 3.541915,0.595508 6.354756,3.322545 7.0625,6.8437503 a 0.750075,0.750075 0 0 1 -1.15625,0.8125 0.76194908,0.76194908 0 0 1 -0.03125,-0.03125 0.750075,0.750075 0 0 1 -0.03125,0 l -3.3125,-1.75 a 0.750075,0.750075 0 0 1 0.25,-1.4375003 0.750075,0.750075 0 0 1 0.4375,0.09375 L 18.5,9.7492501 C 17.534511,7.6836207 15.617586,6.1800487 13.3125,5.7492497 l -0.125,-0.03125 C 9.2743008,5.0600677 5.5954327,7.6798007 4.9375003,11.593 a 0.76034532,0.76034532 0 1 1 -1.5,-0.25 C 4.1308008,7.2194407 7.6591931,4.2652917 11.6875,4.1242497 z M 19.8125,13.218 a 0.750075,0.750075 0 0 1 0.78125,0.90625 c -0.727771,4.73051 -5.17574,7.977771 -9.90625,7.25 -3.4914993,-0.537154 -6.3079262,-3.136421 -7.1249997,-6.5625 a 0.750075,0.750075 0 0 1 0.625,-1.15625 0.750075,0.750075 0 0 1 0.4375,0.09375 l 3.34375,1.75 a 0.76194908,0.76194908 0 0 1 -0.71875,1.34375 l -1.65625,-0.875 c 1.0151707,2.07348 2.9580794,3.575282 5.3124997,3.9375 3.929277,0.604504 7.582996,-2.101973 8.1875,-6.03125 a 0.750075,0.750075 0 0 1 0.625,-0.625 0.750075,0.750075 0 0 1 0.09375,-0.03125 z"
     id="path2989-6" />
  <path
     style="color:#000000;fill:#dfdbd2;fill-opacity:1;stroke:none;stroke-width:1px;marker:none;visibility:visible;display:inline;overflow:visible;enable-background:accumulate"
     d="M 12 1.625 C 6.3835448 1.625 1.84375 6.1647948 1.84375 11.78125 C 1.84375 17.397705 6.3835448 21.96875 12 21.96875 C 17.616455 21.96875 22.15625 17.397705 22.15625 11.78125 C 22.15625 6.1647948 17.616455 1.625 12 1.625 z M 11.6875 3.125 C 12.262972 3.1048512 12.84842 3.1509571 13.4375 3.25 C 16.979415 3.8455076 19.792256 6.5725447 20.5 10.09375 A 0.750075 0.750075 0 0 1 19.34375 10.90625 A 0.76194908 0.76194908 0 0 1 19.3125 10.875 A 0.750075 0.750075 0 0 1 19.28125 10.875 L 15.96875 9.125 A 0.750075 0.750075 0 0 1 16.21875 7.6875 A 0.750075 0.750075 0 0 1 16.65625 7.78125 L 18.5 8.75 C 17.534511 6.6843704 15.617586 5.1807988 13.3125 4.75 L 13.1875 4.71875 C 9.2743005 4.0608176 5.5954324 6.6805505 4.9375 10.59375 A 0.76034532 0.76034532 0 1 1 3.4375 10.34375 C 4.1308005 6.2201909 7.6591928 3.2660414 11.6875 3.125 z M 19.8125 12.21875 A 0.750075 0.750075 0 0 1 20.59375 13.125 C 19.865979 17.85551 15.41801 21.102771 10.6875 20.375 C 7.1960004 19.837846 4.3795735 17.238579 3.5625 13.8125 A 0.750075 0.750075 0 0 1 4.1875 12.65625 A 0.750075 0.750075 0 0 1 4.625 12.75 L 7.96875 14.5 A 0.76194908 0.76194908 0 1 1 7.25 15.84375 L 5.59375 14.96875 C 6.6089207 17.04223 8.5518294 18.544032 10.90625 18.90625 C 14.835527 19.510754 18.489246 16.804277 19.09375 12.875 A 0.750075 0.750075 0 0 1 19.71875 12.25 A 0.750075 0.750075 0 0 1 19.8125 12.21875 z "
     id="path2989" />
</svg>
