<svg xmlns="http://www.w3.org/2000/svg" xmlns:xlink="http://www.w3.org/1999/xlink" version="1.1" x="0px" y="0px" viewBox="0 0 100 100" enable-background="new 0 0 100 100" xml:space="preserve"><path d="M30.5,19l11,10H94v52H6V19h24 M30.5,16h-24C4.843,16,3,16.843,3,18.5v62C3,82.157,4.843,84,6.5,84h88  c1.657,0,2.5-1.843,2.5-3.5v-52c0-1.657-0.843-2.5-2.5-2.5H42.66l-10.142-9.22C31.966,16.278,31.246,16,30.5,16L30.5,16z"></path><g><path d="M64.658,54.867c-0.741,0-1.343,0.601-1.343,1.342c0,7.621-6.2,13.762-13.821,13.762c-4.521,0-8.758-1.971-11.328-5.971   h1.887c0.741,0,1.342-0.76,1.342-1.5S40.794,61,40.053,61h-4.922C34.041,61,33,61.646,33,62.777v4.921   C33,68.439,33.738,69,34.479,69C35.221,69,36,68.439,36,67.698V66.35c4,3.972,8.148,6.365,13.258,6.365   c9.102,0,16.624-7.404,16.624-16.506C65.882,55.468,65.398,54.867,64.658,54.867z"></path></g><g><path d="M32.224,56.715c0.741,0,1.343-0.601,1.343-1.342c0-7.621,6.2-13.553,13.821-13.553c4.521,0,8.757,2.18,11.328,6.18h-1.887   c-0.741,0-1.342,0.76-1.342,1.5s0.601,1.5,1.342,1.5h4.921c1.09,0,2.25-1.063,2.25-2.195v-4.921c0-0.741-0.737-1.302-1.479-1.302   c-0.741,0-1.521,0.561-1.521,1.302v1.349c-4-3.972-8.207-6.365-13.316-6.365c-9.102,0-16.654,7.404-16.654,16.506   C31.029,56.114,31.483,56.715,32.224,56.715z"></path></g></svg>